<svg width="64" height="64" viewBox="0 0 64 64" fill="none" xmlns="http://www.w3.org/2000/svg">
<g id="Group 20">
<circle id="Circle" cx="32" cy="32" r="32" fill="#0891B3"/>
<circle id="Circle outline" cx="32.0002" cy="32.0002" r="30.5409" stroke="#EFEFEF" stroke-width="0.684397"/>
<g id="Logo with background">
<g id="Bitbyte Summer of Code">
<path id="Vector" d="M46.8592 48.362C46.8581 48.5747 46.9097 48.7415 47.014 48.8624C47.1182 48.9834 47.2408 49.0439 47.3815 49.0439C47.4753 49.0439 47.5567 49.0183 47.6255 48.9672C47.6953 48.9151 47.7537 48.8265 47.8006 48.7014L47.8491 48.7326C47.8272 48.8755 47.7636 49.0058 47.6583 49.1236C47.553 49.2404 47.4211 49.2988 47.2626 49.2988C47.0906 49.2988 46.9431 49.232 46.8201 49.0986C46.6981 48.9641 46.6371 48.7837 46.6371 48.5575C46.6371 48.3125 46.6997 48.1217 46.8248 47.9851C46.9509 47.8475 47.1089 47.7787 47.2986 47.7787C47.4592 47.7787 47.5911 47.8319 47.6943 47.9382C47.7975 48.0435 47.8491 48.1848 47.8491 48.362H46.8592ZM46.8592 48.2713H47.5222C47.517 48.1796 47.5061 48.1149 47.4894 48.0774C47.4633 48.019 47.4242 47.9731 47.3721 47.9398C47.321 47.9064 47.2673 47.8897 47.211 47.8897C47.1245 47.8897 47.0468 47.9236 46.978 47.9914C46.9103 48.0581 46.8706 48.1514 46.8592 48.2713Z" fill="#EFEFEF"/>
<path id="Vector_2" d="M46.0287 49.0939C45.9589 49.1669 45.8906 49.2195 45.8239 49.2518C45.7571 49.2831 45.6852 49.2987 45.608 49.2987C45.4517 49.2987 45.3151 49.2336 45.1983 49.1033C45.0815 48.9719 45.0232 48.8035 45.0232 48.5981C45.0232 48.3927 45.0878 48.2051 45.2171 48.0351C45.3464 47.8641 45.5127 47.7787 45.716 47.7787C45.8421 47.7787 45.9464 47.8188 46.0287 47.8991V47.6348C46.0287 47.4711 46.0246 47.3705 46.0162 47.333C46.0089 47.2954 45.9969 47.2699 45.9803 47.2563C45.9636 47.2428 45.9427 47.236 45.9177 47.236C45.8906 47.236 45.8546 47.2443 45.8098 47.261L45.7895 47.2063L46.2164 47.0311H46.2868V48.6873C46.2868 48.8551 46.2904 48.9578 46.2977 48.9953C46.3061 49.0318 46.3186 49.0574 46.3352 49.072C46.353 49.0866 46.3733 49.0939 46.3962 49.0939C46.4244 49.0939 46.4619 49.085 46.5088 49.0673L46.526 49.122L46.1007 49.2987H46.0287V49.0939ZM46.0287 48.9844V48.2463C46.0225 48.1754 46.0037 48.1107 45.9724 48.0523C45.9412 47.9939 45.8995 47.9502 45.8473 47.921C45.7962 47.8907 45.7462 47.8756 45.6972 47.8756C45.6054 47.8756 45.5236 47.9168 45.4517 47.9992C45.3568 48.1076 45.3094 48.2661 45.3094 48.4746C45.3094 48.6852 45.3552 48.8468 45.447 48.9594C45.5387 49.0709 45.6409 49.1267 45.7535 49.1267C45.8484 49.1267 45.9401 49.0793 46.0287 48.9844Z" fill="#EFEFEF"/>
<path id="Vector_3" d="M44.1161 47.7803C44.333 47.7803 44.5071 47.8626 44.6384 48.0274C44.75 48.1681 44.8058 48.3297 44.8058 48.5122C44.8058 48.6404 44.775 48.7702 44.7135 48.9016C44.652 49.0329 44.567 49.132 44.4586 49.1987C44.3512 49.2654 44.2313 49.2988 44.0989 49.2988C43.8831 49.2988 43.7116 49.2128 43.5844 49.0408C43.477 48.8958 43.4233 48.7332 43.4233 48.5528C43.4233 48.4215 43.4556 48.2911 43.5203 48.1619C43.586 48.0315 43.672 47.9356 43.7783 47.8741C43.8847 47.8116 43.9973 47.7803 44.1161 47.7803ZM44.0676 47.8819C44.0124 47.8819 43.9566 47.8986 43.9003 47.932C43.845 47.9643 43.8002 48.0216 43.7658 48.104C43.7314 48.1864 43.7142 48.2922 43.7142 48.4215C43.7142 48.63 43.7554 48.8098 43.8377 48.961C43.9212 49.1122 44.0306 49.1878 44.1662 49.1878C44.2673 49.1878 44.3507 49.1461 44.4164 49.0626C44.4821 48.9792 44.5149 48.8359 44.5149 48.6326C44.5149 48.3782 44.4602 48.178 44.3507 48.0321C44.2767 47.932 44.1823 47.8819 44.0676 47.8819Z" fill="#EFEFEF"/>
<path id="Vector_4" d="M43.1073 47.0859L43.1557 47.8069H43.1073C43.0426 47.5911 42.9504 47.4357 42.8305 47.3408C42.7106 47.246 42.5667 47.1985 42.3988 47.1985C42.2581 47.1985 42.1309 47.2345 42.0172 47.3064C41.9036 47.3773 41.8139 47.491 41.7483 47.6474C41.6836 47.8038 41.6513 47.9982 41.6513 48.2307C41.6513 48.4225 41.6821 48.5888 41.7436 48.7296C41.8051 48.8703 41.8973 48.9782 42.0204 49.0533C42.1444 49.1283 42.2857 49.1659 42.4442 49.1659C42.5818 49.1659 42.7033 49.1367 42.8086 49.0783C42.9139 49.0189 43.0296 48.9016 43.1557 48.7264L43.2042 48.7577C43.0979 48.9464 42.9738 49.0846 42.832 49.1721C42.6902 49.2597 42.5219 49.3035 42.3269 49.3035C41.9755 49.3035 41.7034 49.1732 41.5106 48.9125C41.3667 48.7186 41.2947 48.4903 41.2947 48.2276C41.2947 48.0159 41.3422 47.8215 41.4371 47.6442C41.5319 47.467 41.6622 47.3299 41.828 47.2329C41.9948 47.1349 42.1768 47.0859 42.3738 47.0859C42.5271 47.0859 42.6782 47.1235 42.8273 47.1985C42.8711 47.2215 42.9024 47.2329 42.9212 47.2329C42.9493 47.2329 42.9738 47.223 42.9947 47.2032C43.0218 47.1751 43.0411 47.136 43.0525 47.0859H43.1073Z" fill="#EFEFEF"/>
<path id="Vector_5" d="M39.9717 47.9351V48.8765C39.9717 49.01 39.9863 49.0944 40.0155 49.1299C40.054 49.1758 40.1056 49.1987 40.1703 49.1987H40.3001V49.255H39.4447V49.1987H39.5088C39.5505 49.1987 39.5885 49.1883 39.6229 49.1674C39.6573 49.1466 39.6808 49.1184 39.6933 49.083C39.7069 49.0475 39.7136 48.9787 39.7136 48.8765V47.9351H39.4353V47.8225H39.7136V47.7287C39.7136 47.5858 39.7366 47.4649 39.7825 47.3658C39.8283 47.2668 39.8982 47.187 39.992 47.1266C40.0869 47.0651 40.1932 47.0343 40.311 47.0343C40.4205 47.0343 40.5211 47.0697 40.6129 47.1406C40.6733 47.1876 40.7036 47.2402 40.7036 47.2986C40.7036 47.3299 40.69 47.3596 40.6629 47.3877C40.6358 47.4148 40.6066 47.4284 40.5753 47.4284C40.5514 47.4284 40.5258 47.4201 40.4987 47.4034C40.4726 47.3857 40.4403 47.3486 40.4017 47.2923C40.3632 47.235 40.3277 47.1964 40.2954 47.1766C40.2631 47.1568 40.2271 47.1469 40.1875 47.1469C40.1395 47.1469 40.0989 47.1599 40.0655 47.186C40.0321 47.211 40.0082 47.2506 39.9936 47.3049C39.979 47.358 39.9717 47.4962 39.9717 47.7193V47.8225H40.3408V47.9351H39.9717Z" fill="#EFEFEF"/>
<path id="Vector_6" d="M38.511 47.7803C38.7278 47.7803 38.9019 47.8626 39.0333 48.0274C39.1448 48.1681 39.2006 48.3297 39.2006 48.5122C39.2006 48.6404 39.1699 48.7702 39.1084 48.9016C39.0468 49.0329 38.9619 49.132 38.8534 49.1987C38.7461 49.2654 38.6262 49.2988 38.4938 49.2988C38.2779 49.2988 38.1064 49.2128 37.9792 49.0408C37.8719 48.8958 37.8182 48.7332 37.8182 48.5528C37.8182 48.4215 37.8505 48.2911 37.9151 48.1619C37.9808 48.0315 38.0668 47.9356 38.1732 47.8741C38.2795 47.8116 38.3921 47.7803 38.511 47.7803ZM38.4625 47.8819C38.4072 47.8819 38.3514 47.8986 38.2951 47.932C38.2399 47.9643 38.1951 48.0216 38.1606 48.104C38.1262 48.1864 38.109 48.2922 38.109 48.4215C38.109 48.63 38.1502 48.8098 38.2326 48.961C38.316 49.1122 38.4255 49.1878 38.561 49.1878C38.6621 49.1878 38.7455 49.1461 38.8112 49.0626C38.8769 48.9792 38.9097 48.8359 38.9097 48.6326C38.9097 48.3782 38.855 48.178 38.7455 48.0321C38.6715 47.932 38.5772 47.8819 38.4625 47.8819Z" fill="#EFEFEF"/>
<path id="Vector_7" d="M36.3622 47.7803V48.1024C36.4821 47.8877 36.6051 47.7803 36.7313 47.7803C36.7886 47.7803 36.836 47.798 36.8736 47.8334C36.9111 47.8679 36.9299 47.908 36.9299 47.9539C36.9299 47.9945 36.9163 48.0289 36.8892 48.0571C36.8621 48.0852 36.8298 48.0993 36.7922 48.0993C36.7558 48.0993 36.7146 48.0816 36.6687 48.0461C36.6239 48.0096 36.5905 47.9914 36.5686 47.9914C36.5498 47.9914 36.5295 48.0018 36.5076 48.0227C36.4607 48.0654 36.4122 48.1358 36.3622 48.2338V48.9203C36.3622 48.9996 36.3721 49.0595 36.3919 49.1002C36.4055 49.1283 36.4294 49.1518 36.4638 49.1706C36.4982 49.1893 36.5478 49.1987 36.6124 49.1987V49.255H35.8789V49.1987C35.9519 49.1987 36.0061 49.1872 36.0416 49.1643C36.0677 49.1476 36.0859 49.121 36.0963 49.0845C36.1015 49.0668 36.1041 49.0163 36.1041 48.9328V48.3777C36.1041 48.2109 36.1005 48.1118 36.0932 48.0805C36.0869 48.0482 36.0744 48.0248 36.0557 48.0102C36.0379 47.9956 36.0155 47.9883 35.9884 47.9883C35.9561 47.9883 35.9196 47.9961 35.8789 48.0117L35.8633 47.9554L36.2965 47.7803H36.3622Z" fill="#EFEFEF"/>
<path id="Vector_8" d="M34.7608 48.362C34.7597 48.5747 34.8113 48.7415 34.9156 48.8624C35.0199 48.9834 35.1424 49.0439 35.2831 49.0439C35.3769 49.0439 35.4583 49.0183 35.5271 48.9672C35.5969 48.9151 35.6553 48.8265 35.7022 48.7014L35.7507 48.7326C35.7288 48.8755 35.6652 49.0058 35.5599 49.1236C35.4546 49.2404 35.3227 49.2988 35.1643 49.2988C34.9922 49.2988 34.8447 49.232 34.7217 49.0986C34.5997 48.9641 34.5387 48.7837 34.5387 48.5575C34.5387 48.3125 34.6013 48.1217 34.7264 47.9851C34.8525 47.8475 35.0105 47.7787 35.2002 47.7787C35.3608 47.7787 35.4927 47.8319 35.5959 47.9382C35.6991 48.0435 35.7507 48.1848 35.7507 48.362H34.7608ZM34.7608 48.2713H35.4239C35.4186 48.1796 35.4077 48.1149 35.391 48.0774C35.365 48.019 35.3259 47.9731 35.2737 47.9398C35.2226 47.9064 35.1689 47.8897 35.1127 47.8897C35.0261 47.8897 34.9484 47.9236 34.8796 47.9914C34.8119 48.0581 34.7722 48.1514 34.7608 48.2713Z" fill="#EFEFEF"/>
<path id="Vector_9" d="M32.4525 48.0852C32.5567 47.981 32.6183 47.921 32.637 47.9054C32.6839 47.8658 32.7345 47.835 32.7887 47.8131C32.8429 47.7912 32.8966 47.7803 32.9498 47.7803C33.0395 47.7803 33.1166 47.8063 33.1812 47.8585C33.2459 47.9106 33.2892 47.9862 33.3111 48.0852C33.4184 47.9601 33.5091 47.8783 33.5832 47.8397C33.6572 47.8001 33.7333 47.7803 33.8115 47.7803C33.8876 47.7803 33.9548 47.8001 34.0132 47.8397C34.0727 47.8783 34.1196 47.9419 34.154 48.0305C34.1769 48.091 34.1884 48.1858 34.1884 48.3151V48.9313C34.1884 49.0209 34.1952 49.0825 34.2087 49.1158C34.2191 49.1388 34.2384 49.1586 34.2666 49.1752C34.2947 49.1909 34.3406 49.1987 34.4042 49.1987V49.255H33.6973V49.1987H33.727C33.7886 49.1987 33.8365 49.1867 33.8709 49.1627C33.8949 49.1461 33.9121 49.1195 33.9225 49.083C33.9267 49.0653 33.9288 49.0147 33.9288 48.9313V48.3151C33.9288 48.1983 33.9147 48.116 33.8866 48.068C33.8459 48.0013 33.7807 47.9679 33.6911 47.9679C33.6358 47.9679 33.58 47.982 33.5237 48.0102C33.4685 48.0373 33.4012 48.0884 33.322 48.1634L33.3189 48.1806L33.322 48.2479V48.9313C33.322 49.0293 33.3272 49.0903 33.3376 49.1143C33.3491 49.1382 33.37 49.1586 33.4002 49.1752C33.4304 49.1909 33.482 49.1987 33.555 49.1987V49.255H32.8309V49.1987C32.9102 49.1987 32.9644 49.1893 32.9936 49.1706C33.0238 49.1518 33.0447 49.1236 33.0561 49.0861C33.0614 49.0684 33.064 49.0168 33.064 48.9313V48.3151C33.064 48.1983 33.0468 48.1144 33.0124 48.0633C32.9665 47.9966 32.9024 47.9632 32.82 47.9632C32.7637 47.9632 32.7079 47.9784 32.6527 48.0086C32.5661 48.0545 32.4994 48.1061 32.4525 48.1634V48.9313C32.4525 49.0251 32.4587 49.0861 32.4713 49.1143C32.4848 49.1424 32.5041 49.1638 32.5291 49.1784C32.5552 49.1919 32.6073 49.1987 32.6855 49.1987V49.255H31.9771V49.1987C32.0428 49.1987 32.0886 49.1919 32.1147 49.1784C32.1408 49.1638 32.1606 49.1414 32.1741 49.1111C32.1877 49.0798 32.1944 49.0199 32.1944 48.9313V48.3839C32.1944 48.2265 32.1898 48.1248 32.1804 48.079C32.1731 48.0446 32.1616 48.0211 32.146 48.0086C32.1303 47.995 32.109 47.9883 32.0819 47.9883C32.0527 47.9883 32.0177 47.9961 31.9771 48.0117L31.9536 47.9554L32.3852 47.7803H32.4525V48.0852Z" fill="#EFEFEF"/>
<path id="Vector_10" d="M29.9596 48.0852C30.0639 47.981 30.1254 47.921 30.1441 47.9054C30.1911 47.8658 30.2416 47.835 30.2958 47.8131C30.35 47.7912 30.4037 47.7803 30.4569 47.7803C30.5466 47.7803 30.6237 47.8063 30.6884 47.8585C30.753 47.9106 30.7963 47.9862 30.8182 48.0852C30.9255 47.9601 31.0163 47.8783 31.0903 47.8397C31.1643 47.8001 31.2404 47.7803 31.3186 47.7803C31.3947 47.7803 31.462 47.8001 31.5203 47.8397C31.5798 47.8783 31.6267 47.9419 31.6611 48.0305C31.684 48.091 31.6955 48.1858 31.6955 48.3151V48.9313C31.6955 49.0209 31.7023 49.0825 31.7158 49.1158C31.7262 49.1388 31.7455 49.1586 31.7737 49.1752C31.8018 49.1909 31.8477 49.1987 31.9113 49.1987V49.255H31.2044V49.1987H31.2341C31.2957 49.1987 31.3436 49.1867 31.378 49.1627C31.402 49.1461 31.4192 49.1195 31.4296 49.083C31.4338 49.0653 31.4359 49.0147 31.4359 48.9313V48.3151C31.4359 48.1983 31.4218 48.116 31.3937 48.068C31.353 48.0013 31.2878 47.9679 31.1982 47.9679C31.1429 47.9679 31.0871 47.982 31.0308 48.0102C30.9756 48.0373 30.9083 48.0884 30.8291 48.1634L30.826 48.1806L30.8291 48.2479V48.9313C30.8291 49.0293 30.8343 49.0903 30.8447 49.1143C30.8562 49.1382 30.8771 49.1586 30.9073 49.1752C30.9375 49.1909 30.9891 49.1987 31.0621 49.1987V49.255H30.3381V49.1987C30.4173 49.1987 30.4715 49.1893 30.5007 49.1706C30.5309 49.1518 30.5518 49.1236 30.5633 49.0861C30.5685 49.0684 30.5711 49.0168 30.5711 48.9313V48.3151C30.5711 48.1983 30.5539 48.1144 30.5195 48.0633C30.4736 47.9966 30.4095 47.9632 30.3271 47.9632C30.2708 47.9632 30.215 47.9784 30.1598 48.0086C30.0732 48.0545 30.0065 48.1061 29.9596 48.1634V48.9313C29.9596 49.0251 29.9659 49.0861 29.9784 49.1143C29.9919 49.1424 30.0112 49.1638 30.0362 49.1784C30.0623 49.1919 30.1144 49.1987 30.1926 49.1987V49.255H29.4842V49.1987C29.5499 49.1987 29.5957 49.1919 29.6218 49.1784C29.6479 49.1638 29.6677 49.1414 29.6812 49.1111C29.6948 49.0798 29.7016 49.0199 29.7016 48.9313V48.3839C29.7016 48.2265 29.6969 48.1248 29.6875 48.079C29.6802 48.0446 29.6687 48.0211 29.6531 48.0086C29.6374 47.995 29.6161 47.9883 29.589 47.9883C29.5598 47.9883 29.5248 47.9961 29.4842 48.0117L29.4607 47.9554L29.8924 47.7803H29.9596V48.0852Z" fill="#EFEFEF"/>
<path id="Vector_11" d="M29.1886 47.8225V48.6905C29.1886 48.8562 29.1922 48.9579 29.1995 48.9954C29.2079 49.0319 29.2204 49.0574 29.2371 49.072C29.2548 49.0866 29.2751 49.0939 29.2981 49.0939C29.3304 49.0939 29.3669 49.0851 29.4075 49.0673L29.4294 49.1221L29.0009 49.2988H28.9306V48.9954C28.8075 49.1289 28.7137 49.2128 28.6491 49.2472C28.5844 49.2816 28.5161 49.2988 28.4442 49.2988C28.3639 49.2988 28.2941 49.2759 28.2346 49.23C28.1762 49.1831 28.1356 49.1231 28.1127 49.0501C28.0897 48.9772 28.0782 48.874 28.0782 48.7405V48.1009C28.0782 48.0331 28.0709 47.9862 28.0564 47.9601C28.0418 47.9341 28.0199 47.9143 27.9907 47.9007C27.9625 47.8861 27.9109 47.8793 27.8358 47.8804V47.8225H28.3378V48.7812C28.3378 48.9146 28.3608 49.0022 28.4067 49.0439C28.4536 49.0856 28.5099 49.1064 28.5756 49.1064C28.6204 49.1064 28.671 49.0924 28.7273 49.0642C28.7846 49.0361 28.8524 48.9824 28.9306 48.9031V48.0915C28.9306 48.0102 28.9154 47.9554 28.8852 47.9273C28.856 47.8981 28.7945 47.8825 28.7007 47.8804V47.8225H29.1886Z" fill="#EFEFEF"/>
<path id="Vector_12" d="M27.5184 47.0859V47.8194H27.4605C27.4417 47.6786 27.4078 47.5666 27.3588 47.4832C27.3109 47.3998 27.2421 47.3335 27.1524 47.2845C27.0628 47.2355 26.97 47.211 26.874 47.211C26.7656 47.211 26.676 47.2444 26.6051 47.3111C26.5342 47.3768 26.4987 47.4519 26.4987 47.5363C26.4987 47.601 26.5211 47.6599 26.566 47.713C26.6306 47.7912 26.7844 47.8955 27.0273 48.0258C27.2254 48.1322 27.3604 48.214 27.4323 48.2713C27.5053 48.3276 27.5611 48.3944 27.5997 48.4715C27.6393 48.5487 27.6591 48.6295 27.6591 48.7139C27.6591 48.8745 27.5966 49.0131 27.4714 49.1299C27.3474 49.2456 27.1873 49.3035 26.9913 49.3035C26.9298 49.3035 26.872 49.2988 26.8177 49.2894C26.7854 49.2842 26.7182 49.2654 26.616 49.2331C26.5149 49.1998 26.4508 49.1831 26.4237 49.1831C26.3976 49.1831 26.3767 49.1909 26.3611 49.2065C26.3465 49.2222 26.3356 49.2545 26.3283 49.3035H26.2704V48.5763H26.3283C26.3554 48.7285 26.3919 48.8427 26.4377 48.9188C26.4836 48.9939 26.5535 49.0564 26.6473 49.1065C26.7422 49.1565 26.8459 49.1815 26.9585 49.1815C27.0888 49.1815 27.1915 49.1471 27.2666 49.0783C27.3427 49.0095 27.3807 48.9282 27.3807 48.8343C27.3807 48.7822 27.3661 48.7296 27.3369 48.6764C27.3088 48.6232 27.2645 48.5737 27.204 48.5278C27.1634 48.4965 27.0523 48.4303 26.8709 48.3292C26.6895 48.227 26.5602 48.1457 26.4831 48.0852C26.407 48.0248 26.3491 47.9581 26.3095 47.8851C26.2699 47.8121 26.2501 47.7318 26.2501 47.6442C26.2501 47.492 26.3084 47.3612 26.4252 47.2517C26.542 47.1412 26.6906 47.0859 26.8709 47.0859C26.9835 47.0859 27.1029 47.1136 27.229 47.1688C27.2874 47.1949 27.3286 47.2079 27.3526 47.2079C27.3797 47.2079 27.4016 47.2001 27.4183 47.1845C27.436 47.1678 27.4501 47.1349 27.4605 47.0859H27.5184Z" fill="#EFEFEF"/>
<path id="Vector_13" d="M24.1668 48.362C24.1658 48.5747 24.2174 48.7415 24.3217 48.8624C24.4259 48.9834 24.5484 49.0439 24.6892 49.0439C24.783 49.0439 24.8643 49.0183 24.9331 48.9672C25.003 48.9151 25.0614 48.8265 25.1083 48.7014L25.1568 48.7326C25.1349 48.8755 25.0713 49.0058 24.966 49.1236C24.8607 49.2404 24.7288 49.2988 24.5703 49.2988C24.3983 49.2988 24.2508 49.232 24.1277 49.0986C24.0058 48.9641 23.9448 48.7837 23.9448 48.5575C23.9448 48.3125 24.0073 48.1217 24.1324 47.9851C24.2586 47.8475 24.4165 47.7787 24.6063 47.7787C24.7668 47.7787 24.8987 47.8319 25.0019 47.9382C25.1052 48.0435 25.1568 48.1848 25.1568 48.362H24.1668ZM24.1668 48.2713H24.8299C24.8247 48.1796 24.8138 48.1149 24.7971 48.0774C24.771 48.019 24.7319 47.9731 24.6798 47.9398C24.6287 47.9064 24.575 47.8897 24.5187 47.8897C24.4322 47.8897 24.3545 47.9236 24.2857 47.9914C24.2179 48.0581 24.1783 48.1514 24.1668 48.2713Z" fill="#EFEFEF"/>
<path id="Vector_14" d="M23.4506 47.3518V47.8225H23.7853V47.932H23.4506V48.8609C23.4506 48.9537 23.4637 49.0163 23.4897 49.0486C23.5169 49.0809 23.5513 49.0971 23.593 49.0971C23.6274 49.0971 23.6607 49.0867 23.693 49.0658C23.7254 49.0439 23.7504 49.0121 23.7681 48.9704H23.8291C23.7926 49.0726 23.741 49.1497 23.6743 49.2019C23.6076 49.2529 23.5387 49.2785 23.4679 49.2785C23.4199 49.2785 23.373 49.2655 23.3271 49.2394C23.2812 49.2123 23.2473 49.1742 23.2255 49.1252C23.2036 49.0752 23.1926 48.9986 23.1926 48.8953V47.932H22.9659V47.8804C23.0232 47.8575 23.0816 47.8189 23.141 47.7647C23.2015 47.7094 23.2552 47.6442 23.3021 47.5692C23.3261 47.5296 23.3594 47.4571 23.4022 47.3518H23.4506Z" fill="#EFEFEF"/>
<path id="Vector_15" d="M21.3519 47.8225H22.0196V47.8804H21.9868C21.9399 47.8804 21.9044 47.8908 21.8805 47.9117C21.8575 47.9315 21.846 47.9565 21.846 47.9867C21.846 48.0274 21.8633 48.0837 21.8977 48.1556L22.2464 48.8781L22.567 48.0868C22.5847 48.0441 22.5936 48.0018 22.5936 47.9601C22.5936 47.9414 22.5899 47.9273 22.5826 47.9179C22.5743 47.9064 22.5613 47.8976 22.5435 47.8913C22.5258 47.884 22.4945 47.8804 22.4497 47.8804V47.8225H22.9157V47.8804C22.8772 47.8845 22.8474 47.8929 22.8266 47.9054C22.8057 47.9179 22.7828 47.9414 22.7578 47.9758C22.7484 47.9904 22.7307 48.0305 22.7046 48.0962L22.1213 49.5256C22.065 49.6642 21.991 49.769 21.8992 49.8399C21.8085 49.9108 21.7209 49.9462 21.6365 49.9462C21.575 49.9462 21.5244 49.9285 21.4848 49.8931C21.4452 49.8576 21.4254 49.817 21.4254 49.7711C21.4254 49.7273 21.4394 49.6919 21.4676 49.6647C21.4968 49.6387 21.5364 49.6256 21.5864 49.6256C21.6209 49.6256 21.6678 49.6371 21.7272 49.6601C21.7689 49.6757 21.795 49.6835 21.8054 49.6835C21.8367 49.6835 21.8706 49.6674 21.907 49.635C21.9446 49.6027 21.9821 49.5402 22.0196 49.4474L22.1213 49.1987L21.6068 48.1181C21.5911 48.0858 21.5661 48.0456 21.5317 47.9977C21.5056 47.9612 21.4843 47.9367 21.4676 47.9242C21.4436 47.9075 21.405 47.8929 21.3519 47.8804V47.8225Z" fill="#EFEFEF"/>
<path id="Vector_16" d="M20.2243 48.0695C20.363 47.8767 20.5126 47.7802 20.6731 47.7802C20.8201 47.7802 20.9484 47.8433 21.0579 47.9694C21.1673 48.0946 21.2221 48.2661 21.2221 48.484C21.2221 48.7384 21.1376 48.9432 20.9687 49.0986C20.8238 49.232 20.6622 49.2987 20.4839 49.2987C20.4005 49.2987 20.3155 49.2836 20.229 49.2534C20.1435 49.2231 20.0559 49.1778 19.9663 49.1173V47.6332C19.9663 47.4706 19.9621 47.3705 19.9538 47.333C19.9465 47.2954 19.9345 47.2699 19.9178 47.2563C19.9011 47.2428 19.8803 47.236 19.8552 47.236C19.826 47.236 19.7896 47.2443 19.7458 47.261L19.7239 47.2063L20.1539 47.0311H20.2243V48.0695ZM20.2243 48.1696V49.0266C20.2775 49.0788 20.3322 49.1184 20.3885 49.1455C20.4459 49.1715 20.5042 49.1846 20.5637 49.1846C20.6585 49.1846 20.7466 49.1324 20.828 49.0282C20.9103 48.9239 20.9515 48.7722 20.9515 48.5731C20.9515 48.3896 20.9103 48.2489 20.828 48.1509C20.7466 48.0518 20.6539 48.0023 20.5496 48.0023C20.4943 48.0023 20.4391 48.0164 20.3838 48.0445C20.3421 48.0654 20.289 48.1071 20.2243 48.1696Z" fill="#EFEFEF"/>
<path id="Vector_17" d="M19.3564 47.3518V47.8225H19.691V47.932H19.3564V48.8609C19.3564 48.9537 19.3694 49.0163 19.3955 49.0486C19.4226 49.0809 19.457 49.0971 19.4987 49.0971C19.5331 49.0971 19.5665 49.0867 19.5988 49.0658C19.6311 49.0439 19.6561 49.0121 19.6738 48.9704H19.7348C19.6983 49.0726 19.6467 49.1497 19.58 49.2019C19.5133 49.2529 19.4445 49.2785 19.3736 49.2785C19.3256 49.2785 19.2787 49.2655 19.2328 49.2394C19.187 49.2123 19.1531 49.1742 19.1312 49.1252C19.1093 49.0752 19.0983 48.9986 19.0983 48.8953V47.932H18.8716V47.8804C18.9289 47.8575 18.9873 47.8189 19.0467 47.7647C19.1072 47.7094 19.1609 47.6442 19.2078 47.5692C19.2318 47.5296 19.2652 47.4571 19.3079 47.3518H19.3564Z" fill="#EFEFEF"/>
<path id="Vector_18" d="M18.4134 47.0311C18.4571 47.0311 18.4942 47.0468 18.5244 47.078C18.5557 47.1083 18.5713 47.1453 18.5713 47.1891C18.5713 47.2329 18.5557 47.2704 18.5244 47.3017C18.4942 47.333 18.4571 47.3486 18.4134 47.3486C18.3696 47.3486 18.332 47.333 18.3008 47.3017C18.2695 47.2704 18.2538 47.2329 18.2538 47.1891C18.2538 47.1453 18.269 47.1083 18.2992 47.078C18.3305 47.0468 18.3685 47.0311 18.4134 47.0311ZM18.5432 47.7802V48.9312C18.5432 49.0209 18.5494 49.0808 18.5619 49.1111C18.5755 49.1403 18.5948 49.1622 18.6198 49.1768C18.6459 49.1914 18.6928 49.1986 18.7605 49.1986V49.2549H18.0646V49.1986C18.1345 49.1986 18.1814 49.1919 18.2054 49.1783C18.2293 49.1648 18.2481 49.1423 18.2617 49.1111C18.2763 49.0798 18.2836 49.0198 18.2836 48.9312V48.3792C18.2836 48.2238 18.2789 48.1232 18.2695 48.0774C18.2622 48.044 18.2507 48.0211 18.2351 48.0085C18.2194 47.995 18.1981 47.9882 18.171 47.9882C18.1418 47.9882 18.1063 47.996 18.0646 48.0117L18.0427 47.9554L18.4744 47.7802H18.5432Z" fill="#EFEFEF"/>
<path id="Vector_19" d="M17.2921 48.1728C17.4391 48.2041 17.5491 48.2541 17.6221 48.3229C17.7232 48.4189 17.7738 48.5361 17.7738 48.6748C17.7738 48.7801 17.7404 48.8812 17.6737 48.9782C17.607 49.0741 17.5152 49.1445 17.3984 49.1893C17.2827 49.2331 17.1055 49.255 16.8667 49.255H15.8658V49.1971H15.9456C16.0342 49.1971 16.0978 49.169 16.1364 49.1127C16.1604 49.0762 16.1724 48.9985 16.1724 48.8797V47.5097C16.1724 47.3784 16.1572 47.2955 16.127 47.2611C16.0864 47.2152 16.0259 47.1923 15.9456 47.1923H15.8658V47.1344H16.7823C16.9533 47.1344 17.0904 47.1469 17.1936 47.1719C17.35 47.2095 17.4693 47.2762 17.5517 47.3721C17.6341 47.467 17.6752 47.5765 17.6752 47.7005C17.6752 47.8069 17.6429 47.9023 17.5783 47.9867C17.5136 48.0701 17.4182 48.1321 17.2921 48.1728ZM16.4726 48.0884C16.5112 48.0957 16.555 48.1014 16.604 48.1056C16.654 48.1087 16.7088 48.1103 16.7682 48.1103C16.9204 48.1103 17.0346 48.0941 17.1107 48.0618C17.1878 48.0284 17.2467 47.9778 17.2874 47.9101C17.3281 47.8423 17.3484 47.7683 17.3484 47.688C17.3484 47.5639 17.2978 47.4581 17.1967 47.3705C17.0956 47.283 16.948 47.2392 16.7541 47.2392C16.6499 47.2392 16.556 47.2506 16.4726 47.2736V48.0884ZM16.4726 49.1017C16.5936 49.1299 16.7129 49.144 16.8308 49.144C17.0195 49.144 17.1633 49.1017 17.2624 49.0173C17.3614 48.9318 17.4109 48.8265 17.4109 48.7014C17.4109 48.619 17.3885 48.5398 17.3437 48.4637C17.2989 48.3876 17.2259 48.3276 17.1248 48.2838C17.0236 48.2401 16.8985 48.2182 16.7494 48.2182C16.6848 48.2182 16.6295 48.2192 16.5837 48.2213C16.5378 48.2234 16.5008 48.227 16.4726 48.2322V49.1017Z" fill="#EFEFEF"/>
</g>
<g id="Logo">
<rect id="Rectangle 17" x="24.9242" y="20.7531" width="14.1508" height="9.40204" rx="0.684397" stroke="#EFEFEF" stroke-width="0.684397"/>
<path id="Ellipse 4" d="M32.0007 30.1866L32.0007 33.0013" stroke="#EFEFEF" stroke-width="0.684397"/>
<path id="Ellipse 5" d="M35.51 32.8547H28.49" stroke="#EFEFEF" stroke-width="0.684397"/>
<g id="Group 16">
<path id="Ellipse 1" d="M31.9833 15.8203C32.5328 15.8203 32.9783 15.3749 32.9783 14.8254C32.9783 14.2759 32.5328 13.8304 31.9833 13.8304C31.4338 13.8304 30.9884 14.2759 30.9884 14.8254C30.9884 15.3749 31.4338 15.8203 31.9833 15.8203ZM31.9833 15.8203V27.7725" stroke="#EFEFEF" stroke-width="0.684397"/>
<path id="Ellipse 2" d="M36.3916 17.2236C36.3916 17.7731 36.837 18.2185 37.3865 18.2185C37.936 18.2185 38.3815 17.7731 38.3815 17.2236C38.3815 16.6741 37.936 16.2286 37.3865 16.2286C36.837 16.2286 36.3916 16.6741 36.3916 17.2236ZM36.3916 17.2236L35.0599 17.2236C34.4929 17.2236 34.0333 17.6832 34.0333 18.2502L34.0333 25.3742" stroke="#EFEFEF" stroke-width="0.684397"/>
<path id="Ellipse 3" d="M27.6084 17.2233C27.6084 17.7728 27.1629 18.2183 26.6134 18.2183C26.064 18.2183 25.6185 17.7728 25.6185 17.2233C25.6185 16.6738 26.064 16.2284 26.6134 16.2284C27.1629 16.2284 27.6084 16.6738 27.6084 17.2233ZM27.6084 17.2233L28.9401 17.2233C29.5071 17.2233 29.9667 17.6829 29.9667 18.2499L29.9667 25.374" stroke="#EFEFEF" stroke-width="0.684397"/>
</g>
</g>
<g id="BSOC">
<path id="Vector_20" d="M48.0721 38.3109C47.6882 37.9674 47.2942 37.7169 46.8901 37.5593C46.486 37.3976 46.0536 37.3168 45.593 37.3168C44.6474 37.3168 43.8937 37.5997 43.332 38.1654C42.7703 38.7312 42.4895 39.4909 42.4895 40.4445C42.4895 41.378 42.7501 42.1195 43.2714 42.6691C43.7927 43.2146 44.5039 43.4874 45.405 43.4874C45.9183 43.4874 46.3951 43.4026 46.8356 43.2328C47.276 43.0591 47.6842 42.8004 48.06 42.457L48.0479 44.4027C47.6438 44.6411 47.2195 44.8189 46.7749 44.9361C46.3345 45.0533 45.8698 45.1119 45.3808 45.1119C43.9664 45.1119 42.8047 44.6734 41.8954 43.7966C40.9902 42.9156 40.5377 41.7983 40.5377 40.4445C40.5377 39.0948 40.9923 37.9815 41.9015 37.1047C42.8107 36.2278 43.9826 35.7893 45.4172 35.7893C45.898 35.7893 46.3628 35.8398 46.8113 35.9408C47.2599 36.0419 47.7024 36.1974 48.1388 36.4076L48.0721 38.3109Z" fill="#EFEFEF"/>
<path id="Vector_21" d="M39.3189 40.4566C39.3189 41.0911 39.1997 41.6912 38.9613 42.2569C38.7269 42.8226 38.3875 43.3197 37.943 43.748C37.4823 44.1885 36.963 44.5259 36.3852 44.7603C35.8073 44.9947 35.2092 45.1119 34.591 45.1119C34.0495 45.1119 33.5181 45.0209 32.9968 44.8391C32.4795 44.6532 32.0047 44.3885 31.5723 44.045C31.0147 43.6005 30.5863 43.0691 30.2873 42.4509C29.9923 41.8326 29.8448 41.1678 29.8448 40.4566C29.8448 39.8181 29.962 39.2201 30.1964 38.6624C30.4307 38.1007 30.7742 37.6017 31.2268 37.1652C31.6713 36.7328 32.1866 36.3974 32.7725 36.159C33.3625 35.9206 33.9686 35.8014 34.591 35.8014C35.2092 35.8014 35.8093 35.9206 36.3912 36.159C36.9772 36.3974 37.4944 36.7328 37.943 37.1652C38.3915 37.6017 38.733 38.1007 38.9674 38.6624C39.2017 39.2241 39.3189 39.8222 39.3189 40.4566ZM34.591 43.4207C35.3951 43.4207 36.0578 43.1399 36.5791 42.5782C37.1045 42.0124 37.3671 41.3052 37.3671 40.4566C37.3671 39.6161 37.1024 38.9089 36.5731 38.3351C36.0437 37.7613 35.383 37.4744 34.591 37.4744C33.7868 37.4744 33.12 37.7613 32.5907 38.3351C32.0613 38.9049 31.7966 39.6121 31.7966 40.4566C31.7966 41.3133 32.0573 42.0225 32.5785 42.5842C33.0998 43.1419 33.7706 43.4207 34.591 43.4207Z" fill="#EFEFEF"/>
<path id="Vector_22" d="M22.7042 43.7481L23.7589 42.5539C23.8922 42.8813 24.1064 43.1399 24.4014 43.3298C24.6964 43.5157 25.0277 43.6086 25.3955 43.6086C25.84 43.6086 26.1915 43.5036 26.4502 43.2934C26.7088 43.0833 26.8381 42.8004 26.8381 42.4448C26.8381 42.0246 26.4077 41.6063 25.547 41.1901C25.2682 41.0568 25.0479 40.9476 24.8863 40.8628C24.1104 40.4587 23.573 40.0647 23.2739 39.6808C22.9749 39.2929 22.8254 38.8322 22.8254 38.2988C22.8254 37.5673 23.1143 36.9673 23.6922 36.4985C24.2741 36.0257 25.0277 35.7893 25.9531 35.7893C26.4906 35.7893 26.9533 35.8843 27.3412 36.0742C27.7332 36.2601 28.0787 36.5531 28.3777 36.9531L27.2564 38.026C27.123 37.7674 26.9452 37.5754 26.7229 37.4502C26.5047 37.3208 26.24 37.2562 25.9289 37.2562C25.5531 37.2562 25.25 37.3512 25.0197 37.5411C24.7893 37.727 24.6742 37.9694 24.6742 38.2685C24.6742 38.7372 25.1308 39.1656 26.0441 39.5535C26.2259 39.6303 26.3653 39.6909 26.4623 39.7353C27.2139 40.0788 27.7696 40.4668 28.1292 40.8992C28.4929 41.3315 28.6747 41.8245 28.6747 42.3782C28.6747 43.2106 28.3899 43.8753 27.8201 44.3724C27.2543 44.8654 26.4926 45.1119 25.5349 45.1119C24.856 45.1119 24.2741 44.9947 23.7892 44.7603C23.3043 44.526 22.9426 44.1885 22.7042 43.7481Z" fill="#EFEFEF"/>
<path id="Vector_23" d="M17.7519 43.3964H18.4975C18.9743 43.3964 19.336 43.2933 19.5825 43.0872C19.829 42.8771 19.9523 42.572 19.9523 42.172C19.9523 41.7961 19.829 41.5092 19.5825 41.3112C19.34 41.1132 18.9865 41.0142 18.5217 41.0142H17.7519V43.3964ZM17.7519 39.5473H18.1762C18.7501 39.5473 19.1562 39.4665 19.3946 39.3049C19.633 39.1432 19.7522 38.8725 19.7522 38.4926C19.7522 38.1208 19.6371 37.8562 19.4067 37.6986C19.1804 37.541 18.7824 37.4622 18.2126 37.4622H17.7519V39.5473ZM15.8547 44.8754V36.0013H17.5155C18.3763 36.0013 19.0046 36.0357 19.4007 36.1044C19.8007 36.169 20.1462 36.2782 20.4372 36.4317C20.7807 36.6297 21.0453 36.8904 21.2312 37.2136C21.4212 37.5369 21.5161 37.9026 21.5161 38.3108C21.5161 38.8361 21.3605 39.2584 21.0494 39.5776C20.7382 39.8928 20.2735 40.103 19.6552 40.208C20.3705 40.3131 20.91 40.5455 21.2737 40.9051C21.6414 41.2647 21.8253 41.7436 21.8253 42.3417C21.8253 42.7781 21.7202 43.1782 21.5101 43.5419C21.2999 43.9015 21.011 44.1803 20.6433 44.3783C20.3159 44.5561 19.932 44.6834 19.4916 44.7602C19.0511 44.837 18.3217 44.8754 17.3034 44.8754H17.1094H15.8547Z" fill="#EFEFEF"/>
</g>
</g>
</g>
</svg>
