<svg width="72" height="72" viewBox="0 0 72 72" fill="none" xmlns="http://www.w3.org/2000/svg">
<g id="Discord Margin">
<path id="Vector" d="M69.4973 33.3107C67.1605 24.0971 63.0369 17.3981 60.1896 13.4854C57.9903 12.4854 55.418 11.4854 52.502 10.6117C50.0671 9.8835 47.7893 9.36893 45.7274 9C45.1482 10.3107 44.5689 11.6019 43.9896 12.9126C42.6642 12.7961 41.3387 12.6699 39.9838 12.5728C38.6191 12.466 37.2543 12.3689 35.9093 12.2816C34.5642 12.3689 33.2093 12.466 31.8347 12.5728C30.4798 12.6699 29.1445 12.7864 27.8289 12.9126C27.2594 11.6019 26.6703 10.3107 26.1009 9C24.0293 9.36893 21.7514 9.8835 19.3165 10.6117C16.4103 11.4854 13.8282 12.4854 11.6387 13.4854C8.78162 17.3981 4.65798 24.0971 2.32125 33.3107C0.141615 41.9417 0.396888 49.3204 0.936888 53.9806C3.28343 55.7087 6.21907 57.6117 9.77325 59.3592C13.1213 61.0291 16.2533 62.1845 18.9336 63C20.1413 60.9806 21.3587 58.9709 22.5663 56.9515C20.6027 55.932 18.6489 54.9126 16.6853 53.8932C17.0976 53.4757 17.51 53.0777 17.9322 52.6602C20.2591 53.6699 23.2045 54.7282 26.7096 55.4951C30.2245 56.2621 33.3663 56.534 35.9093 56.5825C38.4522 56.5243 41.594 56.2524 45.1089 55.4951C48.614 54.7282 51.5594 53.6796 53.8962 52.6602C54.3085 53.0777 54.7209 53.4757 55.1333 53.8932C53.1696 54.9126 51.2158 55.932 49.262 56.9515C50.4696 58.9709 51.6871 60.9806 52.8947 63C55.5849 62.1845 58.6973 61.0291 62.0551 59.3592C65.5896 57.6019 68.5351 55.7087 70.8816 53.9806C71.4216 49.3204 71.6867 41.9417 69.5071 33.3107H69.4973ZM25.1583 46.1942C22.1343 46.1942 19.67 42.7864 19.67 38.5825C19.67 34.3786 22.1245 30.9709 25.1583 30.9709C28.1922 30.9709 30.6369 34.3786 30.6369 38.5825C30.6369 42.7864 28.1823 46.1942 25.1583 46.1942ZM46.67 46.1942C43.646 46.1942 41.1816 42.7864 41.1816 38.5825C41.1816 34.3786 43.6362 30.9709 46.67 30.9709C49.7038 30.9709 52.1583 34.3786 52.1583 38.5825C52.1583 42.7864 49.7038 46.1942 46.67 46.1942Z" fill="#18181B"/>
</g>
</svg>
