<svg width="72" height="71" viewBox="0 0 72 71" fill="none" xmlns="http://www.w3.org/2000/svg">
<g id="github-mark-white 1">
<path id="Vector" fill-rule="evenodd" clip-rule="evenodd" d="M35.8858 8.26538C20.6899 8.26538 8.40552 20.6403 8.40552 35.9498C8.40552 48.1875 16.2765 58.5465 27.1957 62.2128C28.5609 62.4885 29.061 61.6172 29.061 60.8842C29.061 60.2424 29.016 58.0425 29.016 55.7503C21.3716 57.4007 19.7798 52.4501 19.7798 52.4501C18.5513 49.2416 16.731 48.417 16.731 48.417C14.2291 46.7211 16.9133 46.7211 16.9133 46.7211C19.6887 46.9045 21.145 49.5628 21.145 49.5628C23.6014 53.7793 27.5597 52.5879 29.1521 51.8545C29.3794 50.0668 30.1078 48.8293 30.8812 48.142C24.7843 47.5002 18.3696 45.1169 18.3696 34.4828C18.3696 31.4577 19.4608 28.9827 21.19 27.0579C20.9172 26.3705 19.9615 23.5282 21.4633 19.724C21.4633 19.724 23.7836 18.9905 29.0154 22.5658C31.2553 21.9598 33.5653 21.6515 35.8858 21.6489C38.2061 21.6489 40.5714 21.9701 42.7556 22.5658C47.9879 18.9905 50.3082 19.724 50.3082 19.724C51.8101 23.5282 50.8538 26.3705 50.581 27.0579C52.3557 28.9827 53.402 31.4577 53.402 34.4828C53.402 45.1169 46.9872 47.454 40.8448 48.142C41.846 49.0127 42.71 50.6625 42.71 53.2753C42.71 56.9878 42.665 59.9674 42.665 60.8837C42.665 61.6172 43.1656 62.4885 44.5302 62.2134C55.4494 58.5459 63.3205 48.1875 63.3205 35.9498C63.3655 20.6403 51.0361 8.26538 35.8858 8.26538Z" fill="#18181B"/>
</g>
</svg>
