<svg width="200" height="268" viewBox="0 0 200 268" fill="none" xmlns="http://www.w3.org/2000/svg">
<g id="Logo">
<rect id="Rectangle 17" x="7.0105" y="100.938" width="185.979" height="122.565" rx="12.1265" stroke="#EFEFEF" stroke-width="12.1265"/>
<path id="Ellipse 4" d="M100.01 225.414L100.01 263" stroke="#EFEFEF" stroke-width="12.1265"/>
<path id="Ellipse 5" d="M146.873 261.044H53.1298" stroke="#EFEFEF" stroke-width="12.1265"/>
<g id="Group 16">
<path id="Ellipse 1" d="M99.7793 33.5725C107.117 33.5725 113.066 27.624 113.066 20.2862C113.066 12.9485 107.117 7 99.7793 7C92.4416 7 86.4931 12.9485 86.4931 20.2862C86.4931 27.624 92.4416 33.5725 99.7793 33.5725ZM99.7793 33.5725V193.178" stroke="#EFEFEF" stroke-width="12.1265"/>
<path id="Ellipse 2" d="M158.644 52.3107C158.644 59.6484 164.593 65.5967 171.931 65.5967C179.268 65.5967 185.217 59.6484 185.217 52.3107C185.217 44.973 179.268 39.0246 171.931 39.0246C164.593 39.0246 158.644 44.973 158.644 52.3107ZM158.644 52.3107L145.342 52.3107C135.296 52.3107 127.152 60.4545 127.152 70.5004L127.152 161.152" stroke="#EFEFEF" stroke-width="12.1265"/>
<path id="Ellipse 3" d="M41.3599 52.3098C41.3599 59.6475 35.4115 65.5959 28.0738 65.5959C20.7361 65.5959 14.7877 59.6475 14.7877 52.3098C14.7877 44.9721 20.7361 39.0238 28.0738 39.0238C35.4115 39.0238 41.3599 44.9721 41.3599 52.3098ZM41.3599 52.3098L54.6627 52.3098C64.7086 52.3098 72.8524 60.4536 72.8524 70.4995L72.8524 161.151" stroke="#EFEFEF" stroke-width="12.1265"/>
</g>
</g>
</svg>
