<svg width="107" height="48" viewBox="0 0 107 48" fill="none" xmlns="http://www.w3.org/2000/svg">
<g id="TPC logo" clip-path="url(#clip0_470_1042)">
<path id="Vector" d="M107 0L97.8342 10.6636H85.0131L78.5133 0H107Z" fill="#32F6C4"/>
<path id="Vector_2" d="M85.0131 4.12253V25.2161C85.0131 27.4973 83.1717 29.3387 80.8906 29.3387H67.355L67.3137 18.5789L74.4457 18.5376L74.4869 10.6224L0.831055 10.6636L10.2716 0H80.8769C83.158 0 84.9994 1.8414 84.9994 4.12253H85.0131Z" fill="#1DCCFF"/>
<path id="Vector_3" d="M35.3504 14.9785H24.6868V48H35.3504V14.9785Z" fill="#32F6C4"/>
<path id="Vector_4" d="M56.6776 18.5652V29.3387H51.3458V48.0001H40.6822V18.5652H56.6776Z" fill="#1DCCFF"/>
<path id="Vector_5" d="M107 37.3363L97.8479 48H60.8139C58.5327 48 56.6913 46.1586 56.6913 43.8774V10.6636H67.355V37.3226H107V37.3363Z" fill="#32F6C4"/>
</g>
<defs>
<clipPath id="clip0_470_1042">
<rect width="106.169" height="48" fill="white" transform="translate(0.831055)"/>
</clipPath>
</defs>
</svg>
